<svg xmlns="http://www.w3.org/2000/svg" xmlns:xlink="http://www.w3.org/1999/xlink" xmlns:serif="http://www.serif.com/" width="100%" height="100%" viewBox="0 0 400 400" xml:space="preserve" style="fill-rule:evenodd;clip-rule:evenodd;stroke-linejoin:round;stroke-miterlimit:2;">    <g transform="matrix(1,0,0,1,-2841.37,-880.317)">        <g transform="matrix(1,0,0,1,326.615,86.5314)">            <g id="sell" transform="matrix(6.11353e-17,-0.199683,0.199683,6.11353e-17,2514.76,1193.15)">                <circle cx="1000" cy="1000" r="1000" style="fill:url(#_Radial1);"></circle>            </g>            <g transform="matrix(8.24941,0,0,8.24941,2648.44,929.101)">                <path d="M8,0C3.58,0 0,3.58 0,8C0,11.54 2.29,14.53 5.47,15.59C5.87,15.66 6.02,15.42 6.02,15.21C6.02,15.02 6.01,14.39 6.01,13.72C4,14.09 3.48,13.23 3.32,12.78C3.23,12.55 2.84,11.84 2.5,11.65C2.22,11.5 1.82,11.13 2.49,11.12C3.12,11.11 3.57,11.7 3.72,11.94C4.44,13.15 5.59,12.81 6.05,12.6C6.12,12.08 6.33,11.73 6.56,11.53C4.78,11.33 2.92,10.64 2.92,7.58C2.92,6.71 3.23,5.99 3.74,5.43C3.66,5.23 3.38,4.41 3.82,3.31C3.82,3.31 4.49,3.1 6.02,4.13C6.66,3.95 7.34,3.86 8.02,3.86C8.7,3.86 9.38,3.95 10.02,4.13C11.55,3.09 12.22,3.31 12.22,3.31C12.66,4.41 12.38,5.23 12.3,5.43C12.81,5.99 13.12,6.7 13.12,7.58C13.12,10.65 11.25,11.33 9.47,11.53C9.76,11.78 10.01,12.26 10.01,13.01C10.01,14.08 10,14.94 10,15.21C10,15.42 10.15,15.67 10.55,15.59C13.71,14.53 16,11.53 16,8C16,3.58 12.42,0 8,0Z" style="fill:white;"></path>            </g>        </g>    </g>    <defs>        <radialGradient id="_Radial1" cx="0" cy="0" r="1" gradientUnits="userSpaceOnUse" gradientTransform="matrix(460.55,-1976.67,1660.08,386.787,812.167,2115.92)"><stop offset="0" style="stop-color:rgb(168,134,56);stop-opacity:1"></stop><stop offset="0.87" style="stop-color:rgb(60,48,0);stop-opacity:1"></stop><stop offset="1" style="stop-color:rgb(254,215,120);stop-opacity:1"></stop></radialGradient>    </defs></svg>