<svg xmlns="http://www.w3.org/2000/svg" xmlns:xlink="http://www.w3.org/1999/xlink" xmlns:serif="http://www.serif.com/" width="100%" height="100%" viewBox="0 0 400 400" xml:space="preserve" style="fill-rule:evenodd;clip-rule:evenodd;stroke-linejoin:round;stroke-miterlimit:2;">    <g transform="matrix(1,0,0,1,-1930.23,-880.317)">        <g transform="matrix(1,0,0,1,326.615,86.5314)">            <g id="sell" transform="matrix(6.11353e-17,-0.199683,0.199683,6.11353e-17,1603.61,1193.15)">                <circle cx="1000" cy="1000" r="1000" style="fill:url(#_Radial1);"></circle>            </g>            <g transform="matrix(0.643364,0,0,0.643364,1721.79,912.385)">                <path d="M61.091,85.617C61.305,83.505 60.499,81.419 58.923,79.998L42.865,60.654L42.865,57.764L92.725,57.764L131.264,142.285L165.146,57.764L212.677,57.764L212.677,60.654L198.947,73.817C197.764,74.72 197.177,76.203 197.422,77.67L197.422,174.391C197.177,175.859 197.764,177.342 198.947,178.244L212.356,191.408L212.356,194.297L144.913,194.297L144.913,191.408L158.803,177.923C160.168,176.559 160.168,176.157 160.168,174.07L160.168,95.891L121.549,193.976L116.33,193.976L71.368,95.891L71.368,161.629C70.993,164.393 71.911,167.175 73.857,169.174L91.922,191.087L91.922,193.976L40.697,193.976L40.697,191.087L58.763,169.174C60.694,167.172 61.559,164.371 61.091,161.629L61.091,85.617Z" style="fill:white;fill-rule:nonzero;"></path>            </g>        </g>    </g>    <defs>        <radialGradient id="_Radial1" cx="0" cy="0" r="1" gradientUnits="userSpaceOnUse" gradientTransform="matrix(460.55,-1976.67,1660.08,386.787,812.167,2115.92)"><stop offset="0" style="stop-color:rgb(61,79,90);stop-opacity:1"></stop><stop offset="0.87" style="stop-color:rgb(16,20,23);stop-opacity:1"></stop><stop offset="1" style="stop-color:rgb(120,254,161);stop-opacity:1"></stop></radialGradient>    </defs></svg>