<svg xmlns="http://www.w3.org/2000/svg" xmlns:xlink="http://www.w3.org/1999/xlink" xmlns:serif="http://www.serif.com/" width="100%" height="100%" viewBox="0 0 400 400" xml:space="preserve" style="fill-rule:evenodd;clip-rule:evenodd;stroke-linejoin:round;stroke-miterlimit:2;">    <g transform="matrix(1,0,0,1,-1482.6,-880.317)">        <g transform="matrix(1,0,0,1,326.615,86.5314)">            <g id="sell" transform="matrix(6.11353e-17,-0.199683,0.199683,6.11353e-17,1155.98,1193.15)">                <circle cx="1000" cy="1000" r="1000" style="fill:url(#_Radial1);"></circle>            </g>            <g id="path888" transform="matrix(1.11982,0,0,1.11982,1199,837.813)">                <path d="M195.7,139.8C195.7,133 190.2,127.6 183.5,127.6C180.2,127.6 177.2,128.9 175,131C166.6,125 155.1,121.1 142.3,120.6L147.9,94.4L166.1,98.3C166.3,102.9 170.1,106.6 174.8,106.6C179.6,106.6 183.5,102.7 183.5,97.9C183.5,93.1 179.6,89.2 174.8,89.2C171.4,89.2 168.4,91.2 167,94.1L146.7,89.8C146.1,89.7 145.5,89.8 145.1,90.1C144.6,90.4 144.3,90.9 144.2,91.5L138,120.7C125,121.1 113.3,125 104.8,131.1C102.6,129 99.6,127.7 96.3,127.7C89.5,127.7 84.1,133.2 84.1,139.9C84.1,144.9 87.1,149.1 91.3,151C91.1,152.2 91,153.4 91,154.7C91,173.5 112.9,188.8 139.9,188.8C166.9,188.8 188.8,173.6 188.8,154.7C188.8,153.5 188.7,152.2 188.5,151C192.7,149.1 195.7,144.8 195.7,139.8ZM111.9,148.5C111.9,143.7 115.8,139.8 120.6,139.8C125.4,139.8 129.3,143.7 129.3,148.5C129.3,153.3 125.4,157.2 120.6,157.2C115.8,157.3 111.9,153.3 111.9,148.5ZM160.6,171.6C154.6,177.6 143.2,178 139.9,178C136.5,178 125.1,177.5 119.2,171.6C118.3,170.7 118.3,169.3 119.2,168.4C120.1,167.5 121.5,167.5 122.4,168.4C126.2,172.2 134.2,173.5 139.9,173.5C145.6,173.5 153.7,172.2 157.4,168.4C158.3,167.5 159.7,167.5 160.6,168.4C161.4,169.3 161.4,170.7 160.6,171.6ZM159,157.3C154.2,157.3 150.3,153.4 150.3,148.6C150.3,143.8 154.2,139.9 159,139.9C163.8,139.9 167.7,143.8 167.7,148.6C167.7,153.3 163.8,157.3 159,157.3Z" style="fill:white;fill-rule:nonzero;"></path>            </g>        </g>    </g>    <defs>        <radialGradient id="_Radial1" cx="0" cy="0" r="1" gradientUnits="userSpaceOnUse" gradientTransform="matrix(460.55,-1976.67,1660.08,386.787,812.167,2115.92)"><stop offset="0" style="stop-color:rgb(168,92,56);stop-opacity:1"></stop><stop offset="0.87" style="stop-color:rgb(60,19,0);stop-opacity:1"></stop><stop offset="1" style="stop-color:rgb(254,166,120);stop-opacity:1"></stop></radialGradient>    </defs></svg>