<svg xmlns="http://www.w3.org/2000/svg" xmlns:xlink="http://www.w3.org/1999/xlink" xmlns:serif="http://www.serif.com/" width="100%" height="100%" viewBox="0 0 400 400" xml:space="preserve" style="fill-rule:evenodd;clip-rule:evenodd;stroke-linejoin:round;stroke-miterlimit:2;">    <g transform="matrix(1,0,0,1,-1036.29,-880.317)">        <g transform="matrix(1,0,0,1,326.615,86.5314)">            <g id="sell" transform="matrix(6.11353e-17,-0.199683,0.199683,6.11353e-17,709.679,1193.15)">                <circle cx="1000" cy="1000" r="1000" style="fill:url(#_Radial1);"></circle>            </g>            <g transform="matrix(0.874592,0,0,0.874592,809.273,887.37)">                <path d="M81.486,130.178L52.2,120.636C52.2,120.636 48.7,119.216 49.827,115.996C50.059,115.332 50.527,114.767 51.927,113.796C58.416,109.273 172.033,68.436 172.033,68.436C172.033,68.436 175.241,67.355 177.133,68.074C178.085,68.369 178.806,69.155 179.018,70.129C179.222,70.975 179.308,71.845 179.272,72.714C179.263,73.466 179.172,74.163 179.103,75.256C178.411,86.421 157.703,169.749 157.703,169.749C157.703,169.749 156.464,174.625 152.025,174.792C149.822,174.863 147.682,174.035 146.1,172.5C137.389,165.007 107.281,144.773 100.628,140.323C100.325,140.116 100.125,139.788 100.082,139.423C99.989,138.954 100.499,138.373 100.499,138.373C100.499,138.373 152.925,91.773 154.32,86.881C154.428,86.502 154.02,86.315 153.472,86.481C149.99,87.762 89.628,125.881 82.966,130.088C82.486,130.233 81.98,130.264 81.486,130.178Z" style="fill:white;fill-rule:nonzero;"></path>            </g>        </g>    </g>    <defs>        <radialGradient id="_Radial1" cx="0" cy="0" r="1" gradientUnits="userSpaceOnUse" gradientTransform="matrix(460.55,-1976.67,1660.08,386.787,812.167,2115.92)"><stop offset="0" style="stop-color:rgb(76,56,168);stop-opacity:1"></stop><stop offset="0.87" style="stop-color:rgb(14,0,60);stop-opacity:1"></stop><stop offset="1" style="stop-color:rgb(120,123,254);stop-opacity:1"></stop></radialGradient>    </defs></svg>