<svg xmlns="http://www.w3.org/2000/svg" xmlns:xlink="http://www.w3.org/1999/xlink" xmlns:serif="http://www.serif.com/" width="100%" height="100%" viewBox="0 0 400 400" xml:space="preserve" style="fill-rule:evenodd;clip-rule:evenodd;stroke-linejoin:round;stroke-miterlimit:2;">    <g transform="matrix(1,0,0,1,-2383.15,-880.317)">        <g transform="matrix(1,0,0,1,326.615,86.5314)">            <g id="sell" transform="matrix(6.11353e-17,-0.199683,0.199683,6.11353e-17,2056.53,1193.15)">                <circle cx="1000" cy="1000" r="1000" style="fill:url(#_Radial1);"></circle>            </g>            <g transform="matrix(4.55152,0,0,4.55152,4054.09,2212.31)">                <path d="M-381.316,-274.664C-381.645,-275.894 -382.612,-276.86 -383.842,-277.19C-386.069,-277.787 -395.004,-277.787 -395.004,-277.787C-395.004,-277.787 -403.939,-277.787 -406.166,-277.19C-407.396,-276.86 -408.362,-275.894 -408.692,-274.664C-409.289,-272.437 -409.289,-267.787 -409.289,-267.787C-409.289,-267.787 -409.289,-263.137 -408.692,-260.91C-408.362,-259.68 -407.396,-258.714 -406.166,-258.384C-403.939,-257.787 -395.004,-257.787 -395.004,-257.787C-395.004,-257.787 -386.069,-257.787 -383.842,-258.384C-382.612,-258.714 -381.645,-259.68 -381.316,-260.91C-380.719,-263.137 -380.719,-267.787 -380.719,-267.787C-380.719,-267.787 -380.721,-272.437 -381.316,-274.664Z" style="fill:white;fill-rule:nonzero;"></path>                <path d="M-397.864,-263.502L-390.441,-267.787L-397.864,-272.072L-397.864,-263.502Z" style="fill-rule:nonzero;"></path>            </g>        </g>    </g>    <defs>        <radialGradient id="_Radial1" cx="0" cy="0" r="1" gradientUnits="userSpaceOnUse" gradientTransform="matrix(460.55,-1976.67,1660.08,386.787,812.167,2115.92)"><stop offset="0" style="stop-color:rgb(168,56,67);stop-opacity:1"></stop><stop offset="0.87" style="stop-color:rgb(60,0,7);stop-opacity:1"></stop><stop offset="1" style="stop-color:rgb(254,126,120);stop-opacity:1"></stop></radialGradient>    </defs></svg>